<svg xmlns="http://www.w3.org/2000/svg" width="93.998" height="93.974" viewBox="0 0 93.998 93.974">
  <g id="Group_35" data-name="Group 35" transform="translate(-38.239 -578.668)">
    <g id="Group_14" data-name="Group 14" transform="translate(38.239 578.668)">
      <path id="Path_20" data-name="Path 20" d="M411.363,306.592a1.776,1.776,0,0,1-.061-.694,1.755,1.755,0,0,1,.08-.688,1.659,1.659,0,0,1,.064.691A1.687,1.687,0,0,1,411.363,306.592Z" transform="translate(-317.46 -258.219)" fill="#0ff4c6"/>
      <path id="Path_21" data-name="Path 21" d="M410.919,316.572a3.355,3.355,0,0,1,.1-1.382A3.347,3.347,0,0,1,410.919,316.572Z" transform="translate(-317.168 -265.442)" fill="#0ff4c6"/>
      <path id="Path_22" data-name="Path 22" d="M409.742,326.531a1.738,1.738,0,0,1,.019-.694,1.774,1.774,0,0,1,.16-.677,1.641,1.641,0,0,1-.019.7A1.731,1.731,0,0,1,409.742,326.531Z" transform="translate(-316.32 -272.657)" fill="#0ff4c6"/>
      <path id="Path_23" data-name="Path 23" d="M408.031,336.447a1.751,1.751,0,0,1,.061-.694,1.711,1.711,0,0,1,.2-.663,1.738,1.738,0,0,1-.061.691A1.713,1.713,0,0,1,408.031,336.447Z" transform="translate(-315.092 -279.843)" fill="#0ff4c6"/>
      <path id="Path_24" data-name="Path 24" d="M405.74,346.187a3.316,3.316,0,0,1,.34-1.337A3.315,3.315,0,0,1,405.74,346.187Z" transform="translate(-313.443 -286.906)" fill="#0ff4c6"/>
      <path id="Path_25" data-name="Path 25" d="M402.84,355.815a1.7,1.7,0,0,1,.141-.68,1.721,1.721,0,0,1,.276-.635,1.7,1.7,0,0,1-.141.68A1.658,1.658,0,0,1,402.84,355.815Z" transform="translate(-311.344 -293.89)" fill="#0ff4c6"/>
      <path id="Path_26" data-name="Path 26" d="M399.38,365.268a1.727,1.727,0,0,1,.182-.669,1.658,1.658,0,0,1,.315-.619,1.755,1.755,0,0,1-.182.671A1.7,1.7,0,0,1,399.38,365.268Z" transform="translate(-308.84 -300.75)" fill="#0ff4c6"/>
      <path id="Path_27" data-name="Path 27" d="M395.37,374.507a1.73,1.73,0,0,1,.221-.658,1.785,1.785,0,0,1,.351-.6,1.694,1.694,0,0,1-.221.66A1.718,1.718,0,0,1,395.37,374.507Z" transform="translate(-305.938 -307.459)" fill="#0ff4c6"/>
      <path id="Path_28" data-name="Path 28" d="M390.82,383.509a1.8,1.8,0,0,1,.26-.644c.18-.337.351-.6.387-.578a1.7,1.7,0,0,1-.26.644C391.03,383.268,390.87,383.528,390.82,383.509Z" transform="translate(-302.645 -313.998)" fill="#0ff4c6"/>
      <path id="Path_29" data-name="Path 29" d="M385.76,392.236a1.723,1.723,0,0,1,.3-.627c.2-.326.384-.575.42-.553a1.747,1.747,0,0,1-.3.627C385.981,392.01,385.793,392.258,385.76,392.236Z" transform="translate(-298.983 -320.344)" fill="#0ff4c6"/>
      <path id="Path_30" data-name="Path 30" d="M380.2,400.66a1.82,1.82,0,0,1,.334-.611c.216-.312.417-.553.45-.525a1.727,1.727,0,0,1-.332.608C380.435,400.447,380.233,400.682,380.2,400.66Z" transform="translate(-294.96 -326.471)" fill="#0ff4c6"/>
      <path id="Path_31" data-name="Path 31" d="M374.17,408.754a1.7,1.7,0,0,1,.367-.589c.235-.3.45-.525.481-.5s-.133.276-.367.589S374.2,408.779,374.17,408.754Z" transform="translate(-290.596 -332.363)" fill="#0ff4c6"/>
      <path id="Path_32" data-name="Path 32" d="M367.671,416.52c-.03-.028.149-.276.4-.553s.481-.5.511-.472-.149.276-.4.566S367.7,416.545,367.671,416.52Z" transform="translate(-285.89 -338.029)" fill="#0ff4c6"/>
      <path id="Path_33" data-name="Path 33" d="M360.743,423.805c-.028-.028.166-.276.434-.553s.508-.467.539-.439-.166.276-.437.553S360.771,423.833,360.743,423.805Z" transform="translate(-280.877 -343.325)" fill="#0ff4c6"/>
      <path id="Path_34" data-name="Path 34" d="M353.414,430.774c-.028-.03.182-.26.464-.514a.347.347,0,1,1,.088.1C353.682,430.62,353.439,430.8,353.414,430.774Z" transform="translate(-275.573 -348.418)" fill="#0ff4c6"/>
      <path id="Path_35" data-name="Path 35" d="M345.7,437.292c-.025-.033.2-.249.495-.486a1.756,1.756,0,0,1,.583-.376c.028.03-.2.249-.495.486A1.705,1.705,0,0,1,345.7,437.292Z" transform="translate(-269.988 -353.181)" fill="#0ff4c6"/>
      <path id="Path_36" data-name="Path 36" d="M337.616,443.346c-.022-.033.213-.238.522-.456a1.7,1.7,0,0,1,.605-.34c.025.033-.21.238-.522.456A1.7,1.7,0,0,1,337.616,443.346Z" transform="translate(-264.142 -357.61)" fill="#0ff4c6"/>
      <path id="Path_37" data-name="Path 37" d="M329.216,448.919c-.022-.033.224-.224.553-.425a1.773,1.773,0,0,1,.624-.3c.022.036-.224.224-.553.426A1.682,1.682,0,0,1,329.216,448.919Z" transform="translate(-258.063 -361.691)" fill="#0ff4c6"/>
      <path id="Path_38" data-name="Path 38" d="M320.507,453.979c-.019-.036.238-.21.572-.392a1.673,1.673,0,0,1,.641-.276,1.758,1.758,0,0,1-.572.392A1.707,1.707,0,0,1,320.507,453.979Z" transform="translate(-251.76 -365.397)" fill="#0ff4c6"/>
      <path id="Path_39" data-name="Path 39" d="M311.52,458.566a1.736,1.736,0,0,1,.594-.356,1.7,1.7,0,0,1,.658-.229,1.724,1.724,0,0,1-.6.359A1.68,1.68,0,0,1,311.52,458.566Z" transform="translate(-245.257 -368.776)" fill="#0ff4c6"/>
      <path id="Path_40" data-name="Path 40" d="M302.29,462.6a1.707,1.707,0,0,1,.616-.323,1.726,1.726,0,0,1,.669-.188,1.776,1.776,0,0,1-.616.323A1.737,1.737,0,0,1,302.29,462.6Z" transform="translate(-238.578 -371.751)" fill="#0ff4c6"/>
      <path id="Path_41" data-name="Path 41" d="M292.85,466.106a1.73,1.73,0,0,1,.633-.276,1.658,1.658,0,0,1,.68-.149,3.369,3.369,0,0,1-1.312.434Z" transform="translate(-231.746 -374.349)" fill="#0ff4c6"/>
      <path id="Path_42" data-name="Path 42" d="M283.24,469a1.708,1.708,0,0,1,.647-.249.349.349,0,1,1-.647.249Z" transform="translate(-224.791 -376.493)" fill="#0ff4c6"/>
      <path id="Path_43" data-name="Path 43" d="M273.47,471.332a1.738,1.738,0,0,1,.663-.207.349.349,0,1,1,.028.141,1.743,1.743,0,0,1-.691.066Z" transform="translate(-217.721 -378.232)" fill="#0ff4c6"/>
      <path id="Path_44" data-name="Path 44" d="M263.571,473.048a1.764,1.764,0,0,1,.663-.177,1.782,1.782,0,0,1,.694-.028,3.27,3.27,0,0,1-1.368.2Z" transform="translate(-210.549 -379.517)" fill="#0ff4c6"/>
      <path id="Path_45" data-name="Path 45" d="M253.65,474.206a1.761,1.761,0,0,1,.683-.13,1.682,1.682,0,0,1,.694.017,1.73,1.73,0,0,1-.683.127A1.656,1.656,0,0,1,253.65,474.206Z" transform="translate(-203.378 -380.404)" fill="#0ff4c6"/>
      <path id="Path_46" data-name="Path 46" d="M243.66,474.733a1.657,1.657,0,0,1,.688-.088,1.749,1.749,0,0,1,.694.052,1.7,1.7,0,0,1-.691.091A1.75,1.75,0,0,1,243.66,474.733Z" transform="translate(-196.148 -380.826)" fill="#0ff4c6"/>
      <path id="Path_47" data-name="Path 47" d="M233.66,474.668a1.658,1.658,0,0,1,.694-.05,1.735,1.735,0,0,1,.688.094A3.357,3.357,0,0,1,233.66,474.668Z" transform="translate(-188.911 -380.805)" fill="#0ff4c6"/>
      <path id="Path_48" data-name="Path 48" d="M223.69,473.981a1.778,1.778,0,0,1,.694,0,.35.35,0,1,1-.014.135A1.682,1.682,0,0,1,223.69,473.981Z" transform="translate(-181.696 -380.331)" fill="#0ff4c6"/>
      <path id="Path_49" data-name="Path 49" d="M213.78,472.714a3.316,3.316,0,0,1,1.365.2,1.692,1.692,0,0,1-.694-.03A1.724,1.724,0,0,1,213.78,472.714Z" transform="translate(-174.524 -379.435)" fill="#0ff4c6"/>
      <path id="Path_50" data-name="Path 50" d="M204,470.779a1.751,1.751,0,0,1,.691.072,1.658,1.658,0,0,1,.66.216A3.405,3.405,0,0,1,204,470.79Z" transform="translate(-167.447 -378.033)" fill="#0ff4c6"/>
      <path id="Path_51" data-name="Path 51" d="M194.29,468.29a3.315,3.315,0,0,1,1.332.367,1.741,1.741,0,0,1-.685-.113A1.717,1.717,0,0,1,194.29,468.29Z" transform="translate(-160.42 -376.237)" fill="#0ff4c6"/>
      <path id="Path_52" data-name="Path 52" d="M184.77,465.22a1.687,1.687,0,0,1,.677.152,1.818,1.818,0,0,1,.633.29,1.694,1.694,0,0,1-.677-.152A1.786,1.786,0,0,1,184.77,465.22Z" transform="translate(-153.53 -374.016)" fill="#0ff4c6"/>
      <path id="Path_53" data-name="Path 53" d="M175.46,461.58a1.718,1.718,0,0,1,.666.193,1.691,1.691,0,0,1,.613.329A3.316,3.316,0,0,1,175.46,461.58Z" transform="translate(-146.793 -371.382)" fill="#0ff4c6"/>
      <path id="Path_54" data-name="Path 54" d="M166.377,457.4a3.4,3.4,0,0,1,1.246.6,1.749,1.749,0,0,1-.655-.232C166.623,457.6,166.358,457.436,166.377,457.4Z" transform="translate(-140.219 -368.357)" fill="#0ff4c6"/>
      <path id="Path_55" data-name="Path 55" d="M157.557,452.69a1.754,1.754,0,0,1,.638.276.349.349,0,1,1-.069.119C157.792,452.9,157.538,452.726,157.557,452.69Z" transform="translate(-133.836 -364.948)" fill="#0ff4c6"/>
      <path id="Path_56" data-name="Path 56" d="M149,447.47a1.711,1.711,0,0,1,.622.31,1.877,1.877,0,0,1,.553.431,1.71,1.71,0,0,1-.622-.318A2.129,2.129,0,0,1,149,447.47Z" transform="translate(-127.644 -361.17)" fill="#0ff4c6"/>
      <path id="Path_57" data-name="Path 57" d="M140.825,441.76a1.752,1.752,0,0,1,.6.343c.309.221.553.428.519.461a1.7,1.7,0,0,1-.6-.345C141.032,442,140.8,441.793,140.825,441.76Z" transform="translate(-121.727 -357.038)" fill="#0ff4c6"/>
      <path id="Path_58" data-name="Path 58" d="M132.991,435.58a1.685,1.685,0,0,1,.583.379c.3.24.514.461.492.492a1.713,1.713,0,0,1-.583-.379C133.179,435.831,132.958,435.61,132.991,435.58Z" transform="translate(-116.057 -352.566)" fill="#0ff4c6"/>
      <path id="Path_59" data-name="Path 59" d="M125.485,429a1.732,1.732,0,0,1,.553.412c.276.257.486.489.461.52s-.276-.155-.553-.412A2.115,2.115,0,0,1,125.485,429Z" transform="translate(-110.625 -347.804)" fill="#0ff4c6"/>
      <path id="Path_60" data-name="Path 60" d="M118.412,421.89a1.821,1.821,0,0,1,.533.445c.276.276.459.517.428.553s-.276-.169-.533-.442S118.382,421.92,118.412,421.89Z" transform="translate(-105.506 -342.659)" fill="#0ff4c6"/>
      <path id="Path_61" data-name="Path 61" d="M111.751,414.434c.033-.028.26.185.508.472a1.824,1.824,0,0,1,.4.569c-.03.028-.257-.185-.508-.472S111.721,414.459,111.751,414.434Z" transform="translate(-100.685 -337.261)" fill="#0ff4c6"/>
      <path id="Path_62" data-name="Path 62" d="M105.549,406.6c.033-.022.246.2.478.506a1.741,1.741,0,0,1,.365.591c-.033.022-.246-.2-.478-.506S105.516,406.621,105.549,406.6Z" transform="translate(-96.196 -331.59)" fill="#0ff4c6"/>
      <path id="Path_63" data-name="Path 63" d="M99.83,398.416c.033-.022.232.216.445.531a1.691,1.691,0,0,1,.329.611c-.03.025-.232-.213-.448-.531a1.709,1.709,0,0,1-.326-.611Z" transform="translate(-92.061 -325.67)" fill="#0ff4c6"/>
      <path id="Path_64" data-name="Path 64" d="M94.58,389.907c.036-.019.221.229.417.553a1.73,1.73,0,0,1,.276.63c-.033.019-.218-.229-.414-.553A1.71,1.71,0,0,1,94.58,389.907Z" transform="translate(-88.261 -319.513)" fill="#0ff4c6"/>
      <path id="Path_65" data-name="Path 65" d="M89.85,381.117c.036-.019.207.24.381.577a1.742,1.742,0,0,1,.254.647c-.036.019-.207-.24-.381-.58A1.683,1.683,0,0,1,89.85,381.117Z" transform="translate(-84.838 -313.151)" fill="#0ff4c6"/>
      <path id="Path_66" data-name="Path 66" d="M85.64,372.05a3.351,3.351,0,0,1,.553,1.26c-.036.019-.193-.251-.348-.6A1.738,1.738,0,0,1,85.64,372.05Z" transform="translate(-81.792 -306.59)" fill="#0ff4c6"/>
      <path id="Path_67" data-name="Path 67" d="M82,362.75a1.765,1.765,0,0,1,.3.622,1.735,1.735,0,0,1,.177.671,1.7,1.7,0,0,1-.309-.622A1.678,1.678,0,0,1,82,362.75Z" transform="translate(-79.158 -299.86)" fill="#0ff4c6"/>
      <path id="Path_68" data-name="Path 68" d="M78.87,353.25a1.741,1.741,0,0,1,.276.638,1.694,1.694,0,0,1,.135.682,1.765,1.765,0,0,1-.276-.638A1.7,1.7,0,0,1,78.87,353.25Z" transform="translate(-76.892 -292.985)" fill="#0ff4c6"/>
      <path id="Path_69" data-name="Path 69" d="M76.321,343.59a1.657,1.657,0,0,1,.238.652,1.7,1.7,0,0,1,.094.688,1.694,1.694,0,0,1-.235-.652A1.741,1.741,0,0,1,76.321,343.59Z" transform="translate(-75.046 -285.994)" fill="#0ff4c6"/>
      <path id="Path_70" data-name="Path 70" d="M74.337,333.78a1.7,1.7,0,0,1,.2.669,1.733,1.733,0,0,1,.055.691,1.708,1.708,0,0,1-.2-.666A1.746,1.746,0,0,1,74.337,333.78Z" transform="translate(-73.602 -278.895)" fill="#0ff4c6"/>
      <path id="Path_71" data-name="Path 71" d="M72.93,323.851a1.688,1.688,0,0,1,.157.677,1.735,1.735,0,0,1,0,.694,3.316,3.316,0,0,1-.171-1.382Z" transform="translate(-72.574 -271.702)" fill="#0ff4c6"/>
      <path id="Path_72" data-name="Path 72" d="M72.068,313.92a1.743,1.743,0,0,1,.116.682,1.694,1.694,0,0,1-.028.7,1.749,1.749,0,0,1-.116-.685A1.722,1.722,0,0,1,72.068,313.92Z" transform="translate(-71.933 -264.523)" fill="#0ff4c6"/>
      <path id="Path_73" data-name="Path 73" d="M71.792,303.92a1.774,1.774,0,0,1,.075.691,1.716,1.716,0,0,1-.064.691,1.774,1.774,0,0,1-.08-.691A1.658,1.658,0,0,1,71.792,303.92Z" transform="translate(-71.713 -257.286)" fill="#0ff4c6"/>
      <path id="Path_74" data-name="Path 74" d="M72.018,293.93a1.746,1.746,0,0,1,.036.694,1.691,1.691,0,0,1-.108.685,1.754,1.754,0,0,1-.036-.694A1.658,1.658,0,0,1,72.018,293.93Z" transform="translate(-71.842 -250.056)" fill="#0ff4c6"/>
      <path id="Path_75" data-name="Path 75" d="M72.861,283.978a1.658,1.658,0,0,1,0,.694,1.76,1.76,0,0,1-.146.68,3.341,3.341,0,0,1,.149-1.382Z" transform="translate(-72.425 -242.848)" fill="#0ff4c6"/>
      <path id="Path_76" data-name="Path 76" d="M74.18,274.09a1.677,1.677,0,0,1-.044.694,1.747,1.747,0,0,1-.182.663,1.677,1.677,0,0,1,.044-.694A1.725,1.725,0,0,1,74.18,274.09Z" transform="translate(-73.322 -235.698)" fill="#0ff4c6"/>
      <path id="Path_77" data-name="Path 77" d="M76.108,264.31a3.343,3.343,0,0,1-.312,1.348,1.738,1.738,0,0,1,.086-.691A1.71,1.71,0,0,1,76.108,264.31Z" transform="translate(-74.664 -228.621)" fill="#0ff4c6"/>
      <path id="Path_78" data-name="Path 78" d="M78.6,254.68a3.429,3.429,0,0,1-.39,1.326,1.683,1.683,0,0,1,.124-.682,1.755,1.755,0,0,1,.265-.644Z" transform="translate(-76.413 -221.652)" fill="#0ff4c6"/>
      <path id="Path_79" data-name="Path 79" d="M81.647,245.23a1.675,1.675,0,0,1-.166.674,1.777,1.777,0,0,1-.3.624,1.675,1.675,0,0,1,.166-.674,1.746,1.746,0,0,1,.3-.624Z" transform="translate(-78.564 -214.813)" fill="#0ff4c6"/>
      <path id="Path_80" data-name="Path 80" d="M85.254,236a1.732,1.732,0,0,1-.2.663,1.785,1.785,0,0,1-.34.608,1.711,1.711,0,0,1,.207-.663A1.688,1.688,0,0,1,85.254,236Z" transform="translate(-81.119 -208.133)" fill="#0ff4c6"/>
      <path id="Path_81" data-name="Path 81" d="M89.379,227a3.393,3.393,0,0,1-.619,1.235,1.7,1.7,0,0,1,.246-.649A1.84,1.84,0,0,1,89.379,227Z" transform="translate(-84.05 -201.616)" fill="#0ff4c6"/>
      <path id="Path_82" data-name="Path 82" d="M94.105,218.246a1.658,1.658,0,0,1-.276.633c-.191.329-.373.583-.409.553a1.782,1.782,0,0,1,.276-.636C93.89,218.476,94.072,218.224,94.105,218.246Z" transform="translate(-87.422 -195.284)" fill="#0ff4c6"/>
      <path id="Path_83" data-name="Path 83" d="M99.29,209.816a1.716,1.716,0,0,1-.321.616,1.806,1.806,0,0,1-.439.536,1.763,1.763,0,0,1,.321-.616C99.061,210.035,99.257,209.794,99.29,209.816Z" transform="translate(-91.12 -189.183)" fill="#0ff4c6"/>
      <path id="Path_84" data-name="Path 84" d="M104.965,201.715a1.677,1.677,0,0,1-.354.6c-.229.3-.439.533-.473.511s.127-.276.356-.6S104.926,201.69,104.965,201.715Z" transform="translate(-95.176 -183.32)" fill="#0ff4c6"/>
      <path id="Path_85" data-name="Path 85" d="M111.131,193.993c.03.028-.146.276-.39.575s-.47.508-.5.484.144-.276.39-.575S111.1,193.962,111.131,193.993Z" transform="translate(-99.593 -177.731)" fill="#0ff4c6"/>
      <path id="Path_86" data-name="Path 86" d="M117.741,186.623c.03.028-.16.276-.423.553s-.5.478-.525.453a1.757,1.757,0,0,1,.423-.553C117.478,186.8,117.713,186.6,117.741,186.623Z" transform="translate(-104.335 -172.398)" fill="#0ff4c6"/>
      <path id="Path_87" data-name="Path 87" d="M124.779,179.672c.028.03-.177.276-.453.525s-.525.448-.553.42.174-.263.453-.525S124.752,179.641,124.779,179.672Z" transform="translate(-109.386 -167.367)" fill="#0ff4c6"/>
      <path id="Path_88" data-name="Path 88" d="M132.216,173.17c.025.03-.193.254-.484.5a1.743,1.743,0,0,1-.577.387c-.025-.03.191-.254.484-.5A1.694,1.694,0,0,1,132.216,173.17Z" transform="translate(-114.729 -162.664)" fill="#0ff4c6"/>
      <path id="Path_89" data-name="Path 89" d="M140.033,167.11c.025.033-.2.24-.511.467a1.782,1.782,0,0,1-.6.354c-.025-.03.2-.24.511-.47A1.691,1.691,0,0,1,140.033,167.11Z" transform="translate(-120.352 -158.279)" fill="#0ff4c6"/>
      <path id="Path_90" data-name="Path 90" d="M148.2,161.53c.022.033-.221.229-.539.437a1.738,1.738,0,0,1-.616.318c-.022-.033.218-.229.539-.439A1.658,1.658,0,0,1,148.2,161.53Z" transform="translate(-126.229 -154.24)" fill="#0ff4c6"/>
      <path id="Path_91" data-name="Path 91" d="M156.718,156.44c.019.036-.232.216-.553.406a1.728,1.728,0,0,1-.636.276,1.755,1.755,0,0,1,.553-.406A1.71,1.71,0,0,1,156.718,156.44Z" transform="translate(-132.37 -150.557)" fill="#0ff4c6"/>
      <path id="Path_92" data-name="Path 92" d="M165.478,151.87a1.733,1.733,0,0,1-.586.37,1.683,1.683,0,0,1-.652.243,1.733,1.733,0,0,1,.586-.37A1.7,1.7,0,0,1,165.478,151.87Z" transform="translate(-138.673 -147.25)" fill="#0ff4c6"/>
      <path id="Path_93" data-name="Path 93" d="M174.531,147.83a1.705,1.705,0,0,1-.608.337,1.658,1.658,0,0,1-.663.2,1.708,1.708,0,0,1,.608-.334,1.746,1.746,0,0,1,.663-.2Z" transform="translate(-145.201 -144.326)" fill="#0ff4c6"/>
      <path id="Path_94" data-name="Path 94" d="M183.819,144.34a1.674,1.674,0,0,1-.624.3,1.755,1.755,0,0,1-.674.163,1.686,1.686,0,0,1,.624-.3A1.741,1.741,0,0,1,183.819,144.34Z" transform="translate(-151.902 -141.8)" fill="#0ff4c6"/>
      <path id="Path_95" data-name="Path 95" d="M193.306,141.42a1.722,1.722,0,0,1-.644.26,1.682,1.682,0,0,1-.682.124,3.3,3.3,0,0,1,1.326-.384Z" transform="translate(-158.748 -139.687)" fill="#0ff4c6"/>
      <path id="Path_96" data-name="Path 96" d="M202.966,139.044a3.341,3.341,0,0,1-1.346.307,1.658,1.658,0,0,1,.658-.224A1.694,1.694,0,0,1,202.966,139.044Z" transform="translate(-165.724 -137.963)" fill="#0ff4c6"/>
      <path id="Path_97" data-name="Path 97" d="M212.762,137.236a3.316,3.316,0,0,1-1.362.227,1.724,1.724,0,0,1,.669-.185,1.761,1.761,0,0,1,.694-.041Z" transform="translate(-172.802 -136.647)" fill="#0ff4c6"/>
      <path id="Path_98" data-name="Path 98" d="M222.642,135.992a3.346,3.346,0,0,1-1.382.144,1.73,1.73,0,0,1,.68-.144A1.658,1.658,0,0,1,222.642,135.992Z" transform="translate(-179.938 -135.732)" fill="#0ff4c6"/>
      <path id="Path_99" data-name="Path 99" d="M232.622,135.323a1.658,1.658,0,0,1-.688.105,1.782,1.782,0,0,1-.694-.039,1.658,1.658,0,0,1,.688-.1A1.782,1.782,0,0,1,232.622,135.323Z" transform="translate(-187.16 -135.234)" fill="#0ff4c6"/>
      <path id="Path_100" data-name="Path 100" d="M242.612,135.23a1.716,1.716,0,0,1-.691.064,1.774,1.774,0,0,1-.691-.08A3.357,3.357,0,0,1,242.612,135.23Z" transform="translate(-194.39 -135.149)" fill="#0ff4c6"/>
      <path id="Path_101" data-name="Path 101" d="M252.6,135.621a3.419,3.419,0,0,1-1.382-.1,1.76,1.76,0,0,1,.694-.025A1.694,1.694,0,0,1,252.6,135.621Z" transform="translate(-201.619 -135.386)" fill="#0ff4c6"/>
      <path id="Path_102" data-name="Path 102" d="M262.571,136.627a1.788,1.788,0,0,1-.7-.017,1.73,1.73,0,0,1-.674-.16,3.338,3.338,0,0,1,1.382.177Z" transform="translate(-208.841 -136.082)" fill="#0ff4c6"/>
      <path id="Path_103" data-name="Path 103" d="M272.44,138.124a3.368,3.368,0,0,1-1.359-.257,1.719,1.719,0,0,1,.694.058A1.739,1.739,0,0,1,272.44,138.124Z" transform="translate(-215.991 -137.107)" fill="#0ff4c6"/>
      <path id="Path_104" data-name="Path 104" d="M282.23,140.237a3.26,3.26,0,0,1-1.34-.337A3.38,3.38,0,0,1,282.23,140.237Z" transform="translate(-223.091 -138.587)" fill="#0ff4c6"/>
      <path id="Path_105" data-name="Path 105" d="M291.868,142.907a3.29,3.29,0,0,1-1.318-.417,1.761,1.761,0,0,1,.677.141,1.692,1.692,0,0,1,.641.276Z" transform="translate(-230.082 -140.462)" fill="#0ff4c6"/>
      <path id="Path_106" data-name="Path 106" d="M301.33,146.125a1.769,1.769,0,0,1-.671-.18,1.7,1.7,0,0,1-.619-.315,1.768,1.768,0,0,1,.671.18,1.686,1.686,0,0,1,.619.315Z" transform="translate(-236.949 -142.734)" fill="#0ff4c6"/>
      <path id="Path_107" data-name="Path 107" d="M310.587,149.909a1.768,1.768,0,0,1-.658-.218,1.716,1.716,0,0,1-.6-.351,1.724,1.724,0,0,1,.658.218C310.344,149.716,310.62,149.873,310.587,149.909Z" transform="translate(-243.672 -145.419)" fill="#0ff4c6"/>
      <path id="Path_108" data-name="Path 108" d="M319.6,154.231a1.7,1.7,0,0,1-.647-.257c-.337-.177-.6-.348-.577-.384a1.716,1.716,0,0,1,.644.257A1.774,1.774,0,0,1,319.6,154.231Z" transform="translate(-250.219 -148.494)" fill="#0ff4c6"/>
      <path id="Path_109" data-name="Path 109" d="M328.346,159.073a1.675,1.675,0,0,1-.627-.293c-.326-.2-.575-.384-.553-.42a1.788,1.788,0,0,1,.63.3C328.12,158.852,328.368,159.04,328.346,159.073Z" transform="translate(-256.579 -151.946)" fill="#0ff4c6"/>
      <path id="Path_110" data-name="Path 110" d="M336.784,164.432a1.782,1.782,0,0,1-.611-.332c-.312-.215-.553-.417-.528-.45a1.727,1.727,0,0,1,.611.332C336.571,164.2,336.806,164.4,336.784,164.432Z" transform="translate(-262.715 -155.775)" fill="#0ff4c6"/>
      <path id="Path_111" data-name="Path 111" d="M344.9,170.268a1.777,1.777,0,0,1-.591-.367c-.3-.235-.525-.448-.5-.481a1.727,1.727,0,0,1,.589.367C344.687,170.022,344.922,170.235,344.9,170.268Z" transform="translate(-268.62 -159.95)" fill="#0ff4c6"/>
      <path id="Path_112" data-name="Path 112" d="M352.653,176.61c-.028.03-.276-.149-.566-.4s-.5-.478-.472-.508.276.149.566.4S352.68,176.569,352.653,176.61Z" transform="translate(-274.271 -164.494)" fill="#0ff4c6"/>
      <path id="Path_113" data-name="Path 113" d="M360,183.31c-.028.028-.276-.166-.553-.431a1.812,1.812,0,0,1-.442-.536c.028-.028.276.166.553.434S360.032,183.283,360,183.31Z" transform="translate(-279.625 -169.301)" fill="#0ff4c6"/>
      <path id="Path_114" data-name="Path 114" d="M366.987,190.5c-.03.028-.26-.18-.517-.461a1.759,1.759,0,0,1-.409-.553,1.826,1.826,0,0,1,.517.464C366.835,190.235,367.017,190.476,366.987,190.5Z" transform="translate(-284.725 -174.471)" fill="#0ff4c6"/>
      <path id="Path_115" data-name="Path 115" d="M373.528,198.039c-.033.025-.251-.2-.489-.492a1.741,1.741,0,0,1-.379-.583c.033-.028.251.193.489.492A1.741,1.741,0,0,1,373.528,198.039Z" transform="translate(-289.503 -179.882)" fill="#0ff4c6"/>
      <path id="Path_116" data-name="Path 116" d="M379.611,205.97c-.033.022-.24-.213-.459-.522a1.715,1.715,0,0,1-.343-.6c.033-.025.238.207.459.519A1.794,1.794,0,0,1,379.611,205.97Z" transform="translate(-293.954 -185.586)" fill="#0ff4c6"/>
      <path id="Path_117" data-name="Path 117" d="M385.212,214.224c-.033.019-.224-.227-.426-.553a1.751,1.751,0,0,1-.307-.624c.033-.022.227.224.428.553A1.658,1.658,0,0,1,385.212,214.224Z" transform="translate(-298.057 -191.521)" fill="#0ff4c6"/>
      <path id="Path_118" data-name="Path 118" d="M390.3,222.828c-.036.019-.213-.238-.4-.572a1.741,1.741,0,0,1-.276-.638c.036-.019.213.235.4.569A1.724,1.724,0,0,1,390.3,222.828Z" transform="translate(-301.784 -197.724)" fill="#0ff4c6"/>
      <path id="Path_119" data-name="Path 119" d="M394.919,231.729a1.73,1.73,0,0,1-.359-.594,1.686,1.686,0,0,1-.229-.655,1.73,1.73,0,0,1,.359.594A1.658,1.658,0,0,1,394.919,231.729Z" transform="translate(-305.185 -204.138)" fill="#0ff4c6"/>
      <path id="Path_120" data-name="Path 120" d="M398.984,240.829a1.7,1.7,0,0,1-.323-.613,1.641,1.641,0,0,1-.191-.666,1.746,1.746,0,0,1,.323.613A1.658,1.658,0,0,1,398.984,240.829Z" transform="translate(-308.181 -210.702)" fill="#0ff4c6"/>
      <path id="Path_121" data-name="Path 121" d="M402.526,250.18a1.757,1.757,0,0,1-.276-.63,1.727,1.727,0,0,1-.149-.68,1.784,1.784,0,0,1,.276.633A1.658,1.658,0,0,1,402.526,250.18Z" transform="translate(-310.808 -217.447)" fill="#0ff4c6"/>
      <path id="Path_122" data-name="Path 122" d="M405.449,259.732a3.351,3.351,0,0,1-.359-1.332A3.352,3.352,0,0,1,405.449,259.732Z" transform="translate(-312.972 -224.344)" fill="#0ff4c6"/>
      <path id="Path_123" data-name="Path 123" d="M407.846,269.454a3.429,3.429,0,0,1-.276-1.354,1.7,1.7,0,0,1,.213.663A1.717,1.717,0,0,1,407.846,269.454Z" transform="translate(-314.767 -231.363)" fill="#0ff4c6"/>
      <path id="Path_124" data-name="Path 124" d="M409.586,279.268a1.659,1.659,0,0,1-.171-.674,1.753,1.753,0,0,1-.03-.694,3.4,3.4,0,0,1,.2,1.382Z" transform="translate(-316.065 -238.455)" fill="#0ff4c6"/>
      <path id="Path_125" data-name="Path 125" d="M410.742,289.186a1.658,1.658,0,0,1-.133-.68,1.762,1.762,0,0,1,0-.7,1.677,1.677,0,0,1,.133.682,1.739,1.739,0,0,1,0,.694Z" transform="translate(-316.941 -245.627)" fill="#0ff4c6"/>
      <path id="Path_126" data-name="Path 126" d="M411.334,299.169a1.641,1.641,0,0,1-.091-.688,1.752,1.752,0,0,1,.05-.691,1.659,1.659,0,0,1,.094.688,1.721,1.721,0,0,1-.053.691Z" transform="translate(-317.415 -252.85)" fill="#0ff4c6"/>
      <path id="Path_127" data-name="Path 127" d="M398.13,304.233c.025-.495.039-.984.041-1.476s0-1.033,0-1.547c0,.514.014,1.031,0,1.547S398.155,303.738,398.13,304.233Z" transform="translate(-307.935 -255.324)" fill="#263238"/>
      <path id="Path_128" data-name="Path 128" d="M168.975,199.351a22.449,22.449,0,0,1-.359-3.109,2.014,2.014,0,0,0-.707-1.473,7.723,7.723,0,0,0-1.042-.4c-1.213-.553-1.3-2.382-2.421-3.1a4.122,4.122,0,0,0-1.169-.426,6.372,6.372,0,0,1-3.984-2.622,8,8,0,0,0-.812-1.362,1.2,1.2,0,0,0-1.431-.345c.243.727.475,1.451.71,2.169a5.369,5.369,0,0,0,.881,1.849,1.843,1.843,0,0,0,1.829.68,1.285,1.285,0,0,1,.671-.13.7.7,0,0,1,.373.323,2.819,2.819,0,0,1-.779,3.526,8.234,8.234,0,0,1-3.592,1.5,2.613,2.613,0,0,1-1.4.066c-.815-.276-1.13-1.254-1.257-2.111-.276-1.893-.276-3.9-1.166-5.6a6.717,6.717,0,0,1-.81-1.633,8.088,8.088,0,0,0-.276-1.934c-.293-.589-1.056-1.058-1.011-1.744a1.259,1.259,0,0,1,.951-.981c.464-.152.959-.138,1.434-.257.185-.05.4-.149.437-.337.039-.276-.337-.456-.4-.735s.276-.553.45-.829c.376-.624-.218-1.4-.851-1.763s-1.4-.68-1.619-1.382a3.9,3.9,0,0,1-.077-1,2.142,2.142,0,0,0-1.332-1.978,1.411,1.411,0,0,0-1.824,1.2,5.129,5.129,0,0,0,.426,1.313c.124.445-.017,1.064-.47,1.136-.743.113-1.238-1.285-1.9-.926.122.87.24,1.738.362,2.611-1,.34-2-.682-2.255-1.716s-.113-2.139-.453-3.142-1.517-1.893-2.426-1.346c-.213,1.2,1.307,1.918,1.871,2.993a1.656,1.656,0,0,1-.649,2.252c-.815.34-1.884-.611-1.481-1.382.144-.276.414-.473.486-.774a1.245,1.245,0,0,0-.448-1.011c-.4-.453-.8-.9-1.2-1.343a2.9,2.9,0,0,0-.881-.749,2.313,2.313,0,0,0-2.553.978,12.522,12.522,0,0,1-1.821,2.31,2.691,2.691,0,0,1-3.769-.533,2.255,2.255,0,0,1,1.406-3.316c.536-.069,1.183.039,1.52-.376.591-.738-.616-1.962-.03-2.708.45-.572,1.357-.149,2.078-.26s1.2-.746,1.694-1.282,1.2-1.036,1.882-.779a2.211,2.211,0,0,1,.251-1.221.762.762,0,0,1,1.091-.229,1.263,1.263,0,0,0,.434,1.741,3.827,3.827,0,0,0,1.951.428c.674.022,1.542-.108,1.694-.765.05-.213,0-.456.113-.647.406-.749,1.71.553,2.365,0,.373-.276.1-.926-.337-1.105a5.016,5.016,0,0,0-1.382-.133c-.459-.052-.989-.37-.942-.829s.6-.707.718-1.147c.2-.746-1.061-1.13-1.6-.577a2.9,2.9,0,0,0-.478,2.191,2.4,2.4,0,0,1-.658,2.117c-.29.326-.879.047-1.025-.362a3.244,3.244,0,0,1-.014-1.3,1.1,1.1,0,0,0-.495-1.127,2.3,2.3,0,0,0-.915-.03c-1.2-.028-1.8-1.658-1.263-2.741a4.783,4.783,0,0,1,2.824-2.072,2.683,2.683,0,0,1,2.506-.033c.323.249.519.622.829.876a4.066,4.066,0,0,0,1.984.528,4.753,4.753,0,0,1,2.769,1.586c.276.321.481.829.2,1.122s-1.058.276-.989.713a1.484,1.484,0,0,0,2.014-.917,1.243,1.243,0,0,1,.566,1.105,2.211,2.211,0,0,1,3.186.729,2.812,2.812,0,0,0,.484.851c.246.216.732.2.812-.119a.68.68,0,0,0,0-.307c-.1-.484-.2-.962-.3-1.44.677-.246,1.346.39,1.691,1.02,1.279,2.349,2.595,1.241,4.778,1.909,1.478.448,2,1.514,2.686,2.807,2.094,3.982,5.12,7.436,6.952,11.545q.276.644.525,1.3c-.025-.108-.044-.213-.072-.321a41.979,41.979,0,0,0-2.437-7.524q-.334-.771-.691-1.531c-.149-.312-.3-.63-.459-.937-.2-.4-.412-.793-.624-1.183-.169-.315-.34-.624-.517-.926-.122-.213-.249-.423-.379-.636s-.276-.475-.437-.713l-.473-.741a2.58,2.58,0,0,0-.155-.229c-.163-.257-.34-.511-.517-.765a.2.2,0,0,0-.053-.077c-.044-.069-.1-.138-.149-.207-.141-.216-.3-.426-.448-.633-.249-.34-.5-.68-.768-1.009-.213-.276-.437-.553-.666-.829s-.4-.486-.608-.724-.4-.467-.611-.7c-.251-.276-.506-.553-.771-.846h0c-.727-.776-1.481-1.523-2.266-2.23-.193-.18-.384-.354-.58-.525s-.4-.348-.6-.517-.4-.34-.605-.5-.406-.334-.611-.495-.329-.263-.5-.384a3.167,3.167,0,0,0-.257-.2c-.354-.276-.716-.553-1.08-.793-.182-.13-.365-.26-.553-.384-.232-.166-.473-.323-.713-.475a.61.61,0,0,0-.108-.072c-.216-.141-.428-.276-.652-.42-.309-.188-.622-.379-.934-.553-.356-.21-.713-.42-1.08-.619s-.807-.442-1.219-.647-.829-.417-1.252-.616-.846-.384-1.274-.572c-.846-.365-1.71-.7-2.584-1.017l-.047-.019c-.334-.119-.671-.235-1.009-.34A.247.247,0,0,0,144,150.9c-.144-.047-.3-.1-.448-.141-.63-.2-1.266-.381-1.912-.553a2.412,2.412,0,0,0-.235-.061c-.185-.055-.373-.1-.566-.144-.426-.1-.857-.2-1.29-.29s-.909-.188-1.365-.276-.959-.166-1.44-.235q-1.909-.276-3.8-.379c-.3-.022-.594-.036-.893-.044s-.619-.022-.928-.025-.622,0-.926,0-.619,0-.931.017a7.042,7.042,0,0,0-.8.03q-.984.047-1.948.133c-.3.025-.6.058-.906.1s-.605.072-.9.113c-.5.066-.989.146-1.478.229h0l-1.194.221h-.028c-.406.08-.8.169-1.2.262h-.064c-.368.086-.732.177-1.091.276-.453.113-.9.243-1.34.373-.376.111-.746.224-1.105.345s-.785.26-1.172.4l-.041.014c-.373.133-.746.276-1.105.42s-.754.3-1.133.464h0c-.354.149-.7.3-1.047.456-.133.058-.26.122-.4.185-.367.169-.727.345-1.105.528-.448.218-.881.453-1.315.688-.384.207-.76.423-1.13.638a43.233,43.233,0,0,0-6.082,4.275c-.669.553-1.3,1.127-1.934,1.713-.528.506-1.044,1.017-1.545,1.553-.448.464-.884.942-1.307,1.429.423-.486.859-.964,1.307-1.429h.329a5.047,5.047,0,0,0,1.846-.03,11.346,11.346,0,0,0,1.476-.829c1.3-.669,3.252-.553,3.774-1.909a10.384,10.384,0,0,1,.365-1.42c.453-.8,1.6-.757,2.509-.611.387.055.829.174.959.553a.97.97,0,0,1-.155.779,7.43,7.43,0,0,1-3.656,3.368c-1.282.553-2.9.881-3.418,2.175.1.478.928.553.926,1.047,0,.387-.522.511-.749.829-.329.456.174,1.144.741,1.2a2.45,2.45,0,0,0,1.561-.605,9.3,9.3,0,0,0,3.551-3.573c.276-.644.47-1.42,1.075-1.788a1.337,1.337,0,0,1,1.918.934c.58-.221,1.445-.323,1.641.276a3.021,3.021,0,0,1,.025.652c.05.893,1.177,1.456,1.174,2.349,0,1.028-1.382,1.362-2.407,1.382-.934,0-1.868.019-2.8.036a2.548,2.548,0,0,0-1.191.2.9.9,0,0,0-.492,1.014,2.7,2.7,0,0,0,.4.553,1.464,1.464,0,0,1-1.277,2.211c-.368-.041-.707-.227-1.069-.293a3.019,3.019,0,0,0-2.73,1.506,7.7,7.7,0,0,1-2.155,2.44c-1.547.848-3.918.257-4.827,1.771a3.9,3.9,0,0,0-.321,2.075,2.781,2.781,0,0,1-.553,2c-.495.517-1.542.481-1.749-.2a1.575,1.575,0,0,1,.091-.906q.459-1.467.909-2.937a2.96,2.96,0,0,0,.094-2.211,2,2,0,0,0-2.785-.492,4.927,4.927,0,0,0-1.749,2.581,12.4,12.4,0,0,1-1.163,2.584h0c-.276.829-.5,1.658-.716,2.5s-.4,1.735-.553,2.622a3.987,3.987,0,0,0,.392-.276c.489-.379,1.619-2.117,2.26-1.091a.7.7,0,0,1-.111.848c-.276.276-.765.276-.995.575-.276.362-.041.9.276,1.2s.752.553.956.953c.39.782-.238,1.791.138,2.586.323.682,1.2.851,1.934,1.039l.251.08a3.451,3.451,0,0,1,3.4-2.738c2.9-.232,6.245,2.625,7.519,4.974,1.418,2.62,1.768,6.079,4.291,7.66,1.807,1.127,4.6,1.219,5.25,3.244.594,1.815-1.144,3.506-1.639,5.35a19.86,19.86,0,0,0-.177,3.763c-.083,1.252-.669,2.658-1.876,3.015-.669.193-1.456.044-2.034.445-1.025.724-.553,2.592-1.564,3.316a4.852,4.852,0,0,1-1.232.437c-2.175.729-2.55,3.716-1.909,5.919.025.08.05.152.072.232a43.247,43.247,0,0,0,41.879,7.143h0a43,43,0,0,0,4.114-1.733,42.536,42.536,0,0,0,5.93-3.459,41.963,41.963,0,0,0,3.741-2.921c.829-.724,1.639-1.487,2.418-2.271.4-.406.788-.812,1.161-1.238a42.97,42.97,0,0,0,9.588-17.2c.276-.945.511-1.9.721-2.876a2.487,2.487,0,0,1-1.832.517A2.866,2.866,0,0,1,168.975,199.351Z" transform="translate(-83.536 -144.996)" fill="#0ff4c6"/>
      <path id="Path_129" data-name="Path 129" d="M235.668,290.915c-1.307,1.462-1.793,3.457-2.368,5.33s-1.382,3.841-3.04,4.891-4.352.583-4.907-1.3c-.3-1.02.086-2.117,0-3.178-.119-1.382-1.033-2.567-1.354-3.915a10.248,10.248,0,0,1,.033-3.531c.735-6.422.141-13.324-3.537-18.64a4.238,4.238,0,0,0-1.708-1.614,2.454,2.454,0,0,0-2.625.5,9.575,9.575,0,0,1-1.166,1.3c-1.053.716-2.589-.127-3.053-1.312a6.444,6.444,0,0,1,.1-3.758q.536-2.31,1.064-4.617a4.022,4.022,0,0,1,1.028-2.211c.887-.771,2.255-.613,3.285-1.177,1.351-.735,1.766-2.454,2.724-3.658s3.448-1.412,3.592.119c3.332-5.079,7.787,3.83,11.221,3.705a9.359,9.359,0,0,1,2.97-.088c1.691.492,2.307,2.523,2.658,4.25q.87,4.3,1.744,8.6c.221,1.091.533,2.316,1.506,2.863.743.42,1.691.318,2.443.721,1.989,1.069.829,4.272-1.072,5.49s-4.416,1.8-5.521,3.769c-.829,1.484-.616,3.393-1.492,4.852A19.562,19.562,0,0,1,235.668,290.915Z" transform="translate(-173.017 -220.133)" fill="#263238"/>
      <path id="Path_130" data-name="Path 130" d="M311.207,386.626c-.7,0-1.47-.461-2.059-.077a2.264,2.264,0,0,0-.655,1.022,2.365,2.365,0,0,1-1.169,1.194,1.481,1.481,0,0,1-1.592-.26,1.089,1.089,0,0,1,0-1.525,7.314,7.314,0,0,1,.666-.4c1.039-.732.644-2.429,1.489-3.357.5-.553,1.235-1.069,1.774-1.616.414-.423.6-.779,1.252-.812C313.78,380.647,314.2,386.651,311.207,386.626Z" transform="translate(-240.844 -312.915)" fill="#263238"/>
      <path id="Union_1" data-name="Union 1" d="M15.255,42.635c-.337-.285-.666-.575-.992-.87s-.644-.593-.959-.9c-.4-.382-.793-.771-1.177-1.18l.008-.005q-1.362-1.407-2.584-2.932a42.505,42.505,0,0,1-2.575-3.554c-.586-.887-1.13-1.8-1.63-2.732-.544-.97-1.036-1.968-1.5-2.982-.373-.815-.724-1.658-1.031-2.487A41.786,41.786,0,0,1,1.013,19Q.979,18.85.947,18.7A43.141,43.141,0,0,1,.253,5.042c.009-.1.036-.2.036-.3L.3,4.752c0-.011,0-.022,0-.033.022-.207.052-.417.08-.627s.049-.42.08-.63C.5,3.2.552,2.953.593,2.693s.077-.52.124-.771c.011-.083.031-.154.047-.235a3.933,3.933,0,0,0,.392-.276C1.646,1.032,2.776-.706,3.414.319a.7.7,0,0,1-.108.848c-.282.271-.766.271-.995.575-.293.362-.052.887.276,1.2s.752.545.956.953c.39.782-.238,1.791.138,2.586.321.683,1.194.851,1.934,1.039l-.158.515A4.483,4.483,0,0,1,9.264,4.868c2.9-.224,6.245,2.633,7.519,4.974,1.418,2.62,1.768,6.085,4.291,7.66,1.793,1.128,4.581,1.219,5.25,3.244.594,1.815-1.144,3.506-1.639,5.35a20.8,20.8,0,0,0-.177,3.763c-.094,1.26-.669,2.658-1.876,3.015-.669.193-1.456.044-2.034.445-1.025.724-.542,2.592-1.564,3.316a4.7,4.7,0,0,1-1.232.436c-2.186.729-2.551,3.708-1.91,5.919.025.08.05.152.072.232C15.722,43.027,15.487,42.833,15.255,42.635Z" transform="translate(3.764 37.324)" fill="#0aa989"/>
      <path id="Path_132" data-name="Path 132" d="M86.857,280c-.041.257-.088.511-.127.768-.03.21-.053.42-.08.63.028-.21.05-.42.08-.63C86.769,280.517,86.816,280.276,86.857,280Z" transform="translate(-82.523 -239.975)" fill="#263238"/>
      <g id="Group_1" data-name="Group 1" transform="translate(18.04 79.088)" opacity="0.6">
        <path id="Path_133" data-name="Path 133" d="M137,421.37c.326.3.655.586.992.87.232.2.467.392.71.586-.243-.193-.478-.387-.71-.586C137.649,421.956,137.321,421.666,137,421.37Z" transform="translate(-137 -421.37)" fill="#263238"/>
      </g>
      <path id="Path_134" data-name="Path 134" d="M245.251,279.705c1.9-1.219,3.062-4.421,1.072-5.49-.752-.4-1.7-.3-2.443-.721a3.976,3.976,0,0,1-1.506-2.863q-.87-4.3-1.744-8.6c-.351-1.727-.967-3.758-2.658-4.25a9.441,9.441,0,0,0-2.97.088c-3.435.124-7.889-8.784-11.221-3.705-.141-1.531-2.628-1.324-3.592-.119s-1.382,2.923-2.725,3.658c-1.031.553-2.4.406-3.285,1.177a4.1,4.1,0,0,0-1.028,2.211q-.531,2.307-1.064,4.617a6.632,6.632,0,0,0-.1,3.758c.45,1.188,2,2.028,3.053,1.313a9.581,9.581,0,0,0,1.166-1.3,2.454,2.454,0,0,1,2.625-.5,4.239,4.239,0,0,1,1.708,1.614c3.678,5.316,4.272,12.219,3.537,18.64a10.317,10.317,0,0,0-.033,3.531c.321,1.348,1.235,2.534,1.354,3.915.091,1.061-.3,2.158,0,3.178.553,1.882,3.252,2.349,4.907,1.3s2.462-3.015,3.039-4.891,1.061-3.868,2.368-5.33a19.446,19.446,0,0,0,2.534-2.608c.876-1.459.658-3.368,1.492-4.852C240.83,281.5,243.336,280.921,245.251,279.705Z" transform="translate(-173.053 -220.148)" fill="#0ff4c6"/>
      <g id="Group_2" data-name="Group 2" transform="translate(4.329 39.025)" opacity="0.6">
        <path id="Path_135" data-name="Path 135" d="M87.551,276.38h0c-.017.08-.036.152-.047.235-.047.251-.083.511-.124.771.041-.26.077-.52.124-.771A1.22,1.22,0,0,0,87.551,276.38Z" transform="translate(-87.38 -276.38)" fill="#263238"/>
      </g>
      <g id="Group_3" data-name="Group 3" transform="translate(4.047 41.429)" opacity="0.6">
        <path id="Path_136" data-name="Path 136" d="M86.44,285.08c-.028.207-.058.42-.08.627h0C86.382,285.5,86.413,285.287,86.44,285.08Z" transform="translate(-86.36 -285.08)" fill="#263238"/>
      </g>
      <path id="Path_137" data-name="Path 137" d="M91.982,277.86l-.251-.08c-.741-.188-1.614-.356-1.934-1.039-.376-.8.251-1.8-.138-2.586-.2-.409-.627-.635-.956-.953s-.569-.843-.276-1.2c.229-.3.713-.3.995-.575a.7.7,0,0,0,.108-.848c-.638-1.025-1.768.713-2.258,1.091a3.981,3.981,0,0,1-.392.276h0c-.017.08-.036.152-.047.235-.047.251-.083.511-.124.771s-.088.511-.127.768c-.03.21-.052.42-.08.63s-.058.42-.08.627a7.154,7.154,0,0,1,1.227.829c.763.6,1.6,1.382,1.514,2.343a.812.812,0,0,0,.022.467.671.671,0,0,0,.37.26,11.679,11.679,0,0,0,2.13.619" transform="translate(-82.356 -232.923)" fill="#0aa989"/>
      <path id="Path_138" data-name="Path 138" d="M102.4,292.2c-.111.862-.18,1.771-.318,2.625a30.987,30.987,0,0,0-.829,3.647c-.055,1.763.945,3.36,1.793,4.907,3.225,5.913,4.5,12.633,5.927,19.243h0c.384.409.776.8,1.177,1.18q.473.461.959.9c.326.3.655.586.992.87.232.2.467.392.71.586-.022-.08-.047-.152-.072-.232-.641-2.211-.276-5.189,1.909-5.919a4.705,4.705,0,0,0,1.232-.437c1.022-.724.539-2.592,1.564-3.316.577-.4,1.365-.251,2.034-.445,1.207-.356,1.782-1.755,1.876-3.015a20.781,20.781,0,0,1,.177-3.763c.495-1.843,2.233-3.534,1.639-5.35-.669-2.025-3.457-2.117-5.25-3.244-2.523-1.575-2.874-5.04-4.291-7.659-1.274-2.34-4.623-5.2-7.519-4.974a3.451,3.451,0,0,0-3.4,2.738" transform="translate(-93.09 -245.617)" fill="#0aa989"/>
      <path id="Path_139" data-name="Path 139" d="M95.587,196.062a2,2,0,0,1,2.785.492,2.957,2.957,0,0,1-.094,2.211q-.453,1.467-.909,2.937a1.575,1.575,0,0,0-.091.906c.207.68,1.268.71,1.749.2a2.887,2.887,0,0,0,.553-2,3.986,3.986,0,0,1,.321-2.075c.909-1.514,3.28-.923,4.827-1.771a7.669,7.669,0,0,0,2.155-2.44,3.021,3.021,0,0,1,2.73-1.506c.362.066.7.251,1.069.293a1.465,1.465,0,0,0,1.277-2.211,2.7,2.7,0,0,1-.4-.553.9.9,0,0,1,.492-1.014,2.547,2.547,0,0,1,1.191-.2c.937-.017,1.871-.025,2.8-.036,1.033,0,2.4-.345,2.407-1.382,0-.892-1.125-1.456-1.174-2.349a3.018,3.018,0,0,0-.025-.652c-.2-.6-1.061-.495-1.641-.276a1.337,1.337,0,0,0-1.918-.934c-.605.367-.788,1.144-1.075,1.788a9.3,9.3,0,0,1-3.551,3.573,2.512,2.512,0,0,1-1.561.605c-.566-.052-1.069-.743-.741-1.2.227-.315.743-.439.749-.829,0-.484-.829-.569-.926-1.047.519-1.293,2.136-1.628,3.418-2.175a7.43,7.43,0,0,0,3.661-3.371.97.97,0,0,0,.155-.779c-.127-.365-.572-.484-.959-.553-.906-.146-2.056-.188-2.509.611a10.384,10.384,0,0,0-.365,1.42c-.522,1.362-2.487,1.241-3.774,1.909a10.1,10.1,0,0,1-1.476.829,5.046,5.046,0,0,1-1.846.03h-.329c-.448.464-.884.942-1.307,1.429s-.829.984-1.238,1.489a42.673,42.673,0,0,0-4.907,7.737c-.481.964-.92,1.951-1.326,2.959s-.774,2.036-1.105,3.084a11.851,11.851,0,0,0,1.163-2.584A5.009,5.009,0,0,1,95.587,196.062Z" transform="translate(-86.886 -167.335)" fill="#0ff4c6"/>
      <g id="Group_4" data-name="Group 4" transform="translate(89.297 50.743)" opacity="0.6">
        <path id="Path_140" data-name="Path 140" d="M395.446,320.633c.086-.616.158-1.23.21-1.843-.052.613-.124,1.227-.21,1.843-.014.2-.041.4-.072.591-.135.948-.3,1.879-.495,2.8.191-.926.359-1.857.495-2.8C395.4,321.028,395.433,320.832,395.446,320.633Z" transform="translate(-394.88 -318.79)" fill="#263238"/>
      </g>
      <g id="Group_5" data-name="Group 5" transform="translate(89.266 37.842)" opacity="0.6">
        <path id="Path_141" data-name="Path 141" d="M394.77,272.1q.188.859.337,1.719-.149-.862-.337-1.719Z" transform="translate(-394.77 -272.1)" fill="#263238"/>
      </g>
      <path id="Path_142" data-name="Path 142" d="M285.718,224.094c.086-.616.158-1.23.21-1.843s.1-1.224.122-1.835c.025-.495.039-.984.041-1.476s0-1.033,0-1.547a42.165,42.165,0,0,0-.354-4.59c-.077-.58-.166-1.161-.276-1.735s-.213-1.147-.337-1.719h0q-.238-.655-.525-1.3c-1.832-4.109-4.858-7.563-6.952-11.545-.683-1.293-1.208-2.36-2.686-2.807-2.183-.669-3.5.439-4.778-1.909-.345-.63-1.014-1.266-1.691-1.02.1.478.2.956.3,1.44a.679.679,0,0,1,0,.307c-.08.315-.566.334-.812.119a2.813,2.813,0,0,1-.475-.859,2.211,2.211,0,0,0-3.18-.729,1.243,1.243,0,0,0-.566-1.105,1.484,1.484,0,0,1-2.014.917c-.069-.431.683-.4.989-.713s.066-.8-.2-1.122a4.753,4.753,0,0,0-2.769-1.572,4.042,4.042,0,0,1-1.984-.528c-.315-.254-.511-.627-.829-.876a3.305,3.305,0,0,0-2.719-.771c-1.122.426-3.25,1.749-3.777,2.827s1.23,2.763,2.429,2.791a2.254,2.254,0,0,1,.915.03,1.1,1.1,0,0,1,.495,1.127,3.053,3.053,0,0,0,.014,1.3c.157.409.735.688,1.025.362a2.369,2.369,0,0,0,.658-2.117,2.887,2.887,0,0,1,.478-2.191c.536-.55,1.8-.169,1.6.578-.119.439-.674.691-.718,1.147s.481.788.942.829a4.58,4.58,0,0,1,1.382.133c.426.18.71.815.337,1.105-.655.553-1.959-.746-2.365,0-.111.191-.064.434-.113.647-.152.658-1.02.779-1.694.765a3.631,3.631,0,0,1-1.951-.428,1.259,1.259,0,0,1-.434-1.741.762.762,0,0,0-1.091.229,2.211,2.211,0,0,0-.251,1.221c-.682-.257-1.4.246-1.882.779a3.251,3.251,0,0,1-1.694,1.282c-.713.111-1.628-.312-2.078.26-.586.746.622,1.97.03,2.708-.337.414-.984.307-1.52.376a2.243,2.243,0,0,0-1.406,3.316,2.687,2.687,0,0,0,3.769.533,12.228,12.228,0,0,0,1.821-2.31,2.308,2.308,0,0,1,2.553-.978,2.9,2.9,0,0,1,.882.749c.4.445.8.89,1.2,1.343a1.234,1.234,0,0,1,.448,1.011c-.072.3-.343.5-.486.774-.4.779.671,1.727,1.481,1.382a1.662,1.662,0,0,0,.649-2.252c-.553-1.075-2.083-1.793-1.871-2.993.909-.553,2.089.334,2.426,1.346s.193,2.117.453,3.142,1.252,2.056,2.255,1.716c-.122-.873-.24-1.741-.362-2.611.66-.359,1.155,1.039,1.9.926.453-.072.6-.688.47-1.136a5.645,5.645,0,0,1-.426-1.312,1.411,1.411,0,0,1,1.824-1.2,2.131,2.131,0,0,1,1.332,1.978,3.9,3.9,0,0,0,.077,1c.218.694.995,1.009,1.619,1.382s1.227,1.138.851,1.763c-.169.276-.514.506-.45.829s.439.45.4.735c-.036.188-.251.276-.437.337-.475.119-.97.108-1.434.257a1.255,1.255,0,0,0-.951.981c-.044.685.713,1.127,1.011,1.744a8.152,8.152,0,0,1,.276,1.934,6.618,6.618,0,0,0,.81,1.633c.9,1.694.881,3.7,1.166,5.6.127.857.442,1.835,1.257,2.111a2.614,2.614,0,0,0,1.4-.066,8.181,8.181,0,0,0,3.592-1.5,2.843,2.843,0,0,0,.779-3.526.7.7,0,0,0-.373-.323,1.285,1.285,0,0,0-.671.13,1.824,1.824,0,0,1-1.829-.68,5.415,5.415,0,0,1-.881-1.849c-.235-.718-.467-1.442-.71-2.169a1.2,1.2,0,0,1,1.431.345,7.586,7.586,0,0,1,.812,1.362,6.336,6.336,0,0,0,3.984,2.622,4.123,4.123,0,0,1,1.169.426c1.119.721,1.208,2.539,2.421,3.1a7.723,7.723,0,0,1,1.042.4,2,2,0,0,1,.707,1.473,21.639,21.639,0,0,0,.359,3.109,2.8,2.8,0,0,0,2.025,2.153,2.487,2.487,0,0,0,1.832-.517h0c.191-.926.359-1.857.495-2.8C285.677,224.489,285.7,224.293,285.718,224.094Z" transform="translate(-195.855 -171.508)" fill="#0ff4c6"/>
      <path id="Path_143" data-name="Path 143" d="M310.9,380.793c-.655.033-.829.39-1.252.812-.539.553-1.274,1.069-1.774,1.616-.845.928-.45,2.625-1.489,3.357a7.352,7.352,0,0,0-.666.4,1.089,1.089,0,0,0,0,1.525,1.481,1.481,0,0,0,1.592.26,2.365,2.365,0,0,0,1.169-1.194,2.265,2.265,0,0,1,.655-1.022c.589-.384,1.354.075,2.059.077C314.2,386.651,313.773,380.647,310.9,380.793Z" transform="translate(-240.837 -312.916)" fill="#0ff4c6"/>
      <g id="Group_6" data-name="Group 6" transform="translate(38.694 32.454)" opacity="0.3">
        <path id="Path_144" data-name="Path 144" d="M245.251,279.705c1.9-1.219,3.062-4.421,1.072-5.49-.752-.4-1.7-.3-2.443-.721a3.976,3.976,0,0,1-1.506-2.863q-.87-4.3-1.744-8.6c-.351-1.727-.967-3.758-2.658-4.25a9.441,9.441,0,0,0-2.97.088c-3.435.124-7.889-8.784-11.221-3.705-.141-1.531-2.628-1.324-3.592-.119s-1.382,2.923-2.725,3.658c-1.031.553-2.4.406-3.285,1.177a4.1,4.1,0,0,0-1.028,2.211q-.531,2.307-1.064,4.617a6.632,6.632,0,0,0-.1,3.758c.45,1.188,2,2.028,3.053,1.313a9.581,9.581,0,0,0,1.166-1.3,2.454,2.454,0,0,1,2.625-.5,4.239,4.239,0,0,1,1.708,1.614c3.678,5.316,4.272,12.219,3.537,18.64a10.317,10.317,0,0,0-.033,3.531c.321,1.348,1.235,2.534,1.354,3.915.091,1.061-.3,2.158,0,3.178.553,1.882,3.252,2.349,4.907,1.3s2.462-3.015,3.039-4.891,1.061-3.868,2.368-5.33a19.446,19.446,0,0,0,2.534-2.608c.876-1.459.658-3.368,1.492-4.852C240.83,281.5,243.336,280.921,245.251,279.705Z" transform="translate(-211.747 -252.602)"/>
      </g>
      <g id="Group_7" data-name="Group 7" transform="translate(5.794 12.289)" opacity="0.3">
        <path id="Path_146" data-name="Path 146" d="M95.587,196.062a2,2,0,0,1,2.785.492,2.957,2.957,0,0,1-.094,2.211q-.453,1.467-.909,2.937a1.575,1.575,0,0,0-.091.906c.207.68,1.268.71,1.749.2a2.887,2.887,0,0,0,.553-2,3.986,3.986,0,0,1,.321-2.075c.909-1.514,3.28-.923,4.827-1.771a7.669,7.669,0,0,0,2.155-2.44,3.021,3.021,0,0,1,2.73-1.506c.362.066.7.251,1.069.293a1.465,1.465,0,0,0,1.277-2.211,2.7,2.7,0,0,1-.4-.553.9.9,0,0,1,.492-1.014,2.547,2.547,0,0,1,1.191-.2c.937-.017,1.871-.025,2.8-.036,1.033,0,2.4-.345,2.407-1.382,0-.892-1.125-1.456-1.174-2.349a3.018,3.018,0,0,0-.025-.652c-.2-.6-1.061-.495-1.641-.276a1.337,1.337,0,0,0-1.918-.934c-.605.367-.788,1.144-1.075,1.788a9.3,9.3,0,0,1-3.551,3.573,2.512,2.512,0,0,1-1.561.605c-.566-.052-1.069-.743-.741-1.2.227-.315.743-.439.749-.829,0-.484-.829-.569-.926-1.047.519-1.293,2.136-1.628,3.418-2.175a7.43,7.43,0,0,0,3.661-3.371.97.97,0,0,0,.155-.779c-.127-.365-.572-.484-.959-.553-.906-.146-2.056-.188-2.509.611a10.384,10.384,0,0,0-.365,1.42c-.522,1.362-2.487,1.241-3.774,1.909a10.1,10.1,0,0,1-1.476.829,5.046,5.046,0,0,1-1.846.03h-.329c-.448.464-.884.942-1.307,1.429s-.829.984-1.238,1.489a42.673,42.673,0,0,0-4.907,7.737c-.481.964-.92,1.951-1.326,2.959s-.774,2.036-1.105,3.084a11.851,11.851,0,0,0,1.163-2.584A5.009,5.009,0,0,1,95.587,196.062Z" transform="translate(-92.68 -179.625)"/>
      </g>
      <g id="Group_8" data-name="Group 8" transform="translate(47.408 14.399)" opacity="0.3">
        <path id="Path_147" data-name="Path 147" d="M285.74,225.447c.086-.616.158-1.23.21-1.843s.1-1.224.122-1.835c.025-.495.039-.984.041-1.476s0-1.033,0-1.547a42.173,42.173,0,0,0-.354-4.59c-.077-.58-.166-1.161-.276-1.735s-.213-1.147-.337-1.719h0q-.238-.655-.525-1.3c-1.832-4.109-4.858-7.563-6.952-11.545-.682-1.293-1.207-2.36-2.686-2.807-2.183-.669-3.5.439-4.778-1.909-.345-.63-1.014-1.266-1.691-1.02.1.478.2.956.3,1.44a.679.679,0,0,1,0,.307c-.08.315-.566.334-.812.119a2.813,2.813,0,0,1-.475-.859,2.211,2.211,0,0,0-3.18-.729,1.243,1.243,0,0,0-.566-1.105,1.484,1.484,0,0,1-2.014.917c-.069-.431.682-.4.989-.713s.066-.8-.2-1.122a4.752,4.752,0,0,0-2.769-1.572,4.042,4.042,0,0,1-1.984-.528c-.315-.254-.511-.627-.829-.876-.691-.533-.426.6-1.243.909-1.122.426-1.73.553-2.26,1.63a5.74,5.74,0,0,0-.276.666,1.365,1.365,0,0,0,.553,1.628l.083.044a1.1,1.1,0,0,1,.495,1.127,3.054,3.054,0,0,0,.014,1.3c.158.409.735.688,1.025.362a2.369,2.369,0,0,0,.658-2.117,2.887,2.887,0,0,1,.478-2.191c.536-.55,1.8-.169,1.6.578-.119.439-.674.691-.718,1.147s.481.788.942.829a4.581,4.581,0,0,1,1.382.133c.426.18.71.815.337,1.105-.655.553-1.959-.746-2.365,0-.111.191-.064.434-.113.647-.152.658-1.02.779-1.694.765a3.631,3.631,0,0,1-1.951-.428,1.259,1.259,0,0,1-.434-1.741.762.762,0,0,0-1.091.229,2.21,2.21,0,0,0-.251,1.221c-.683-.257-1.4.246-1.882.779a3.251,3.251,0,0,1-1.694,1.282c-.713.111-1.628-.312-2.078.26-.586.746.622,1.97.03,2.708-.337.414-.984.307-1.52.376a2.243,2.243,0,0,0-1.406,3.316,2.687,2.687,0,0,0,3.769.533,12.226,12.226,0,0,0,1.821-2.31,2.308,2.308,0,0,1,2.553-.978,2.9,2.9,0,0,1,.881.749c.4.445.8.89,1.2,1.343a1.234,1.234,0,0,1,.448,1.011c-.072.3-.343.5-.486.774-.4.779.671,1.727,1.481,1.382a1.662,1.662,0,0,0,.649-2.252c-.553-1.075-2.083-1.793-1.871-2.993.909-.553,2.089.334,2.426,1.346s.193,2.117.453,3.142,1.252,2.056,2.255,1.716c-.122-.873-.24-1.741-.362-2.611.66-.359,1.155,1.039,1.9.926.453-.072.6-.688.47-1.136a5.643,5.643,0,0,1-.426-1.313,1.411,1.411,0,0,1,1.824-1.2,2.131,2.131,0,0,1,1.332,1.978,3.9,3.9,0,0,0,.077,1c.218.694.995,1.009,1.619,1.382s1.227,1.138.851,1.763c-.169.276-.514.506-.45.829s.439.45.4.735c-.036.188-.251.276-.437.337-.475.119-.97.108-1.434.257a1.255,1.255,0,0,0-.951.981c-.044.685.713,1.127,1.011,1.744a8.148,8.148,0,0,1,.276,1.934,6.621,6.621,0,0,0,.81,1.633c.9,1.694.881,3.7,1.166,5.6.127.857.442,1.835,1.257,2.111a2.614,2.614,0,0,0,1.4-.066,8.181,8.181,0,0,0,3.592-1.5,2.843,2.843,0,0,0,.779-3.526.7.7,0,0,0-.373-.323,1.285,1.285,0,0,0-.672.13,1.823,1.823,0,0,1-1.829-.68,5.414,5.414,0,0,1-.881-1.849c-.235-.718-.467-1.442-.71-2.169a1.2,1.2,0,0,1,1.431.345,7.584,7.584,0,0,1,.812,1.362,6.335,6.335,0,0,0,3.984,2.622,4.123,4.123,0,0,1,1.169.426c1.119.721,1.207,2.539,2.421,3.1a7.725,7.725,0,0,1,1.042.4,2,2,0,0,1,.707,1.473,21.631,21.631,0,0,0,.359,3.109,2.8,2.8,0,0,0,2.025,2.153,2.487,2.487,0,0,0,1.832-.517h0c.191-.926.359-1.857.495-2.8C285.7,225.842,285.726,225.646,285.74,225.447Z" transform="translate(-243.285 -187.26)"/>
      </g>
      <g id="Group_9" data-name="Group 9" transform="translate(64.575 67.875)" opacity="0.3">
        <path id="Path_148" data-name="Path 148" d="M310.9,380.793c-.655.033-.829.39-1.252.812-.539.553-1.274,1.069-1.774,1.616-.845.928-.45,2.625-1.489,3.357a7.352,7.352,0,0,0-.666.4,1.089,1.089,0,0,0,0,1.525,1.481,1.481,0,0,0,1.592.26,2.365,2.365,0,0,0,1.169-1.194,2.265,2.265,0,0,1,.655-1.022c.589-.384,1.354.075,2.059.077C314.2,386.651,313.773,380.647,310.9,380.793Z" transform="translate(-305.412 -380.791)"/>
      </g>
      <path id="Path_165" data-name="Path 165" d="M197.37,366.91h10.249a3.5,3.5,0,0,0-3.545-1.409c-2.52.229-2.647-.812-3.929-.939S197.8,365.415,197.37,366.91Z" transform="translate(-162.649 -301.163)" fill="#fff"/>
      <path id="Path_166" data-name="Path 166" d="M222.87,331.787h15.167s-1.34-2.44-5.25-2.086c-3.73.34-3.918-1.2-5.8-1.382S223.5,329.577,222.87,331.787Z" transform="translate(-181.103 -274.932)" fill="#fff"/>
      <path id="Path_167" data-name="Path 167" d="M151.68,252.884H161.6a3.4,3.4,0,0,0-3.432-1.362c-2.44.221-2.564-.787-3.8-.909S152.094,251.439,151.68,252.884Z" transform="translate(-129.584 -218.7)" fill="#fff"/>
    </g>
  </g>
</svg>
